<svg preserveAspectRatio="none" width="100%" height="100%" overflow="visible" style="display: block;" viewBox="0 0 110 60" fill="none" xmlns="http://www.w3.org/2000/svg">
<g id="&#229;&#143;&#179;&#231;&#174;&#173;&#229;&#164;&#180;">
<path id="Vector 8" d="M54 29.5H69.5L79.5 39.5H104" stroke="var(--stroke-0, #23FAFF)"/>
<path id="Vector 9" d="M78.5 21.5H66L61 29" stroke="var(--stroke-0, #23FAFF)" stroke-linecap="square"/>
<path id="Vector 6" d="M25.2515 0.5H18.4309C17.8989 0.5 17.63 1.1411 18.003 1.52056L45.0936 29.0865C45.3203 29.3171 45.3234 29.6859 45.1007 29.9203L17.9626 58.4868C17.5995 58.8689 17.8704 59.5 18.3976 59.5H25.2455C25.4082 59.5 25.5638 59.434 25.6769 59.317L54.09 29.9241C54.3176 29.6887 54.3144 29.3144 54.0829 29.0829L25.6757 0.675736C25.5632 0.563214 25.4106 0.5 25.2515 0.5Z" stroke="var(--stroke-0, #23FAFF)"/>
<path id="Vector 7" d="M8.25147 0.5H1.4309C0.898869 0.5 0.630047 1.1411 1.00296 1.52056L28.0936 29.0865C28.3203 29.3171 28.3234 29.6859 28.1007 29.9203L0.962587 58.4868C0.599507 58.8689 0.870428 59.5 1.39759 59.5H8.24549C8.40815 59.5 8.56384 59.434 8.67689 59.317L37.09 29.9241C37.3176 29.6887 37.3144 29.3144 37.0829 29.0829L8.67574 0.675736C8.56321 0.563214 8.4106 0.5 8.25147 0.5Z" fill="var(--fill-0, #23FAFF)"/>
<circle id="Ellipse 1" cx="81.5" cy="21" r="3" stroke="var(--stroke-0, #23FAFF)"/>
<circle id="Ellipse 2" cx="106.5" cy="38" r="3" stroke="var(--stroke-0, #23FAFF)"/>
</g>
</svg>
