<svg preserveAspectRatio="none" width="100%" height="100%" overflow="visible" style="display: block;" viewBox="0 0 21.4008 15.3994" fill="none" xmlns="http://www.w3.org/2000/svg">
<path id="Union" d="M10.7009 0C12.9682 0.000149073 15.1848 0.673479 17.0691 1.93457C18.8357 3.11703 20.2364 4.76644 21.1169 6.69531L21.2859 7.08496L21.2946 7.1084C21.4361 7.48988 21.4362 7.90955 21.2946 8.29102C21.2918 8.29876 21.289 8.30682 21.2859 8.31445C20.4213 10.4107 18.9534 12.2036 17.0691 13.4648C15.1848 14.7259 12.9682 15.3993 10.7009 15.3994C8.43344 15.3994 6.21614 14.7259 4.33175 13.4648C2.44732 12.2036 0.979513 10.4107 0.114952 8.31445C0.111806 8.30682 0.109036 8.29876 0.106163 8.29102C-0.0354156 7.9095 -0.0353599 7.48993 0.106163 7.1084L0.114952 7.08496C0.979513 4.9887 2.44732 3.1958 4.33175 1.93457C6.21617 0.673413 8.43339 0 10.7009 0ZM10.7009 1.40039C8.71064 1.40039 6.76408 1.99168 5.11007 3.09863C3.46103 4.20246 2.17535 5.76957 1.41573 7.60254C1.39445 7.66488 1.39479 7.7325 1.41573 7.79492C2.17529 9.62855 3.46054 11.1967 5.11007 12.3008C6.76408 13.4077 8.71064 13.999 10.7009 13.999C12.691 13.9989 14.6369 13.4077 16.2907 12.3008C17.9401 11.1967 19.2245 9.62838 19.9841 7.79492C20.0051 7.73236 20.0055 7.66501 19.9841 7.60254C19.2245 5.76975 17.9396 4.2024 16.2907 3.09863C14.6369 1.99174 12.691 1.40054 10.7009 1.40039ZM10.6999 4C12.7432 4.00015 14.4001 5.65684 14.4001 7.7002C14.4001 9.74356 12.7432 11.4002 10.6999 11.4004C8.65646 11.4004 6.99972 9.74365 6.99972 7.7002C6.99972 5.65674 8.65646 4 10.6999 4ZM10.6999 5.40039C9.42966 5.40039 8.40011 6.42994 8.40011 7.7002C8.40011 8.97045 9.42966 10 10.6999 10C11.97 9.99985 12.9997 8.97036 12.9997 7.7002C12.9997 6.43003 11.97 5.40054 10.6999 5.40039Z" fill="var(--fill-0, #D1D5DC)"/>
</svg>
