<svg preserveAspectRatio="none" width="100%" height="100%" overflow="visible" style="display: block;" viewBox="0 0 21.4008 15.3994" fill="none" xmlns="http://www.w3.org/2000/svg">
<path id="Union" d="M10.7008 0C12.9681 9.3244e-05 15.1847 0.673549 17.069 1.93457C18.8357 3.11701 20.2364 4.76644 21.1169 6.69531L21.2858 7.08496L21.2946 7.1084C21.4361 7.48993 21.4362 7.9095 21.2946 8.29102C21.2917 8.29875 21.2889 8.30683 21.2858 8.31445C20.4212 10.4107 18.9534 12.2036 17.069 13.4648C15.1848 14.7258 12.9681 15.3993 10.7008 15.3994C8.43345 15.3993 6.21602 14.726 4.3317 13.4648C2.44737 12.2036 0.979414 10.4107 0.114902 8.31445C0.111768 8.30683 0.10898 8.29874 0.106113 8.29102C-0.035399 7.90958 -0.0353433 7.48985 0.106113 7.1084L0.114902 7.08496C0.979414 4.98876 2.44737 3.19581 4.3317 1.93457C6.21604 0.673406 8.4334 8.16459e-05 10.7008 0ZM10.7008 1.40039C8.71066 1.40047 6.76395 1.99167 5.11002 3.09863C3.46109 4.20247 2.17525 5.76964 1.41568 7.60254C1.39445 7.6648 1.39479 7.73258 1.41568 7.79492C2.17519 9.62849 3.4606 11.1966 5.11002 12.3008C6.76395 13.4077 8.71066 13.9989 10.7008 13.999C12.6909 13.9989 14.6368 13.4076 16.2907 12.3008C17.9401 11.1967 19.2245 9.62839 19.984 7.79492C20.0051 7.73231 20.0055 7.66506 19.984 7.60254C19.2244 5.76974 17.9396 4.20238 16.2907 3.09863C14.6368 1.99181 12.6909 1.40048 10.7008 1.40039ZM10.6999 4C12.7433 4 14.4001 5.65674 14.4001 7.7002C14.4001 9.74365 12.7433 11.4004 10.6999 11.4004C8.6566 11.4002 6.99967 9.74351 6.99967 7.7002C6.99967 5.65688 8.6566 4.00022 10.6999 4ZM10.6999 5.40039C9.4298 5.40061 8.40006 6.43008 8.40006 7.7002C8.40006 8.97031 9.4298 9.99978 10.6999 10C11.9701 10 12.9997 8.97045 12.9997 7.7002C12.9997 6.42994 11.9701 5.40039 10.6999 5.40039Z" fill="var(--fill-0, #D1D5DC)"/>
</svg>
